<?xml version="1.0" encoding="utf-8"?>
<!-- Generator: Adobe Illustrator 24.1.2, SVG Export Plug-In . SVG Version: 6.00 Build 0)  -->
<svg version="1.1" id="Camada_1" xmlns="http://www.w3.org/2000/svg" xmlns:xlink="http://www.w3.org/1999/xlink" x="0px" y="0px"
	 viewBox="0 0 512 512" style="enable-background:new 0 0 512 512;" xml:space="preserve">
<g>
	<g>
		<path d="M396.24,285.43L285.43,396.24c-16.15,16.15-42.33,16.15-58.48,0L116.14,285.43c-16.15-16.15-16.15-42.33,0-58.48
			l110.81-110.81c16.15-16.15,42.33-16.15,58.48,0l110.81,110.81C412.39,243.1,412.39,269.28,396.24,285.43z"/>
	</g>
	<g>
		<g>
			<path d="M407.68,88.2l-50,50c-7.29,7.29-19.1,7.29-26.39,0l-50-50c-7.29-7.29-7.29-19.1,0-26.39l50-50
				c7.29-7.29,19.1-7.29,26.39,0l50,50C414.97,69.09,414.97,80.91,407.68,88.2z"/>
		</g>
		<g>
			<path d="M500.2,180.71l-50,50c-7.29,7.29-19.1,7.29-26.39,0l-50-50c-7.29-7.29-7.29-19.1,0-26.39l50-50
				c7.29-7.29,19.1-7.29,26.39,0l50,50C507.48,161.61,507.48,173.42,500.2,180.71z"/>
		</g>
	</g>
	<g>
		<g>
			<path d="M150.48,133.98l-50-50c-7.29-7.29-7.29-19.1,0-26.39l50-50c7.29-7.29,19.1-7.29,26.39,0l50,50
				c7.29,7.29,7.29,19.1,0,26.39l-50,50C169.58,141.26,157.77,141.26,150.48,133.98z"/>
		</g>
		<g>
			<path d="M57.97,226.49l-50-50c-7.29-7.29-7.29-19.1,0-26.39l50-50c7.29-7.29,19.1-7.29,26.39,0l50,50
				c7.29,7.29,7.29,19.1,0,26.39l-50,50C77.07,233.78,65.26,233.78,57.97,226.49z"/>
		</g>
	</g>
	<g>
		<g>
			<path d="M104.32,423.8l50-50c7.29-7.29,19.1-7.29,26.39,0l50,50c7.29,7.29,7.29,19.1,0,26.39l-50,50
				c-7.29,7.29-19.1,7.29-26.39,0l-50-50C97.03,442.91,97.03,431.09,104.32,423.8z"/>
		</g>
		<g>
			<path d="M11.8,331.29l50-50c7.29-7.29,19.1-7.29,26.39,0l50,50c7.29,7.29,7.29,19.1,0,26.39l-50,50c-7.29,7.29-19.1,7.29-26.39,0
				l-50-50C4.52,350.39,4.52,338.58,11.8,331.29z"/>
		</g>
	</g>
	<g>
		<g>
			<path d="M361.52,378.02l50,50c7.29,7.29,7.29,19.1,0,26.39l-50,50c-7.29,7.29-19.1,7.29-26.39,0l-50-50
				c-7.29-7.29-7.29-19.1,0-26.39l50-50C342.42,370.74,354.23,370.74,361.52,378.02z"/>
		</g>
		<g>
			<path d="M454.03,285.51l50,50c7.29,7.29,7.29,19.1,0,26.39l-50,50c-7.29,7.29-19.1,7.29-26.39,0l-50-50
				c-7.29-7.29-7.29-19.1,0-26.39l50-50C434.93,278.22,446.74,278.22,454.03,285.51z"/>
		</g>
	</g>
</g>
</svg>
